<mxfile host="app.diagrams.net" modified="2022-05-31T00:04:48.858Z" agent="5.0 (Windows NT 10.0; Win64; x64) AppleWebKit/537.36 (KHTML, like Gecko) Chrome/100.0.4896.127 Safari/537.36 OPR/86.0.4363.59" etag="s1Z3B5rSjYcPj__-Ejuo" version="18.1.3" type="github">
  <diagram id="N1HYoiyU07o6EDMfZa8b" name="1">
    <mxGraphModel dx="1382" dy="795" grid="1" gridSize="10" guides="1" tooltips="1" connect="1" arrows="1" fold="1" page="1" pageScale="1" pageWidth="827" pageHeight="1169" math="0" shadow="0">
      <root>
        <mxCell id="0" />
        <mxCell id="1" parent="0" />
        <mxCell id="22zfAgJAvpb3tttAiQae-13" style="edgeStyle=none;rounded=0;orthogonalLoop=1;jettySize=auto;html=1;" edge="1" parent="1" source="22zfAgJAvpb3tttAiQae-1" target="22zfAgJAvpb3tttAiQae-9">
          <mxGeometry relative="1" as="geometry" />
        </mxCell>
        <mxCell id="22zfAgJAvpb3tttAiQae-15" style="edgeStyle=none;rounded=0;orthogonalLoop=1;jettySize=auto;html=1;" edge="1" parent="1" source="22zfAgJAvpb3tttAiQae-1" target="22zfAgJAvpb3tttAiQae-14">
          <mxGeometry relative="1" as="geometry" />
        </mxCell>
        <mxCell id="22zfAgJAvpb3tttAiQae-1" value="Cliente" style="shape=umlActor;verticalLabelPosition=bottom;verticalAlign=top;html=1;outlineConnect=0;" vertex="1" parent="1">
          <mxGeometry x="460" y="330" width="30" height="60" as="geometry" />
        </mxCell>
        <mxCell id="22zfAgJAvpb3tttAiQae-10" style="edgeStyle=none;rounded=0;orthogonalLoop=1;jettySize=auto;html=1;entryX=0;entryY=1;entryDx=0;entryDy=0;" edge="1" parent="1" source="22zfAgJAvpb3tttAiQae-2" target="22zfAgJAvpb3tttAiQae-9">
          <mxGeometry relative="1" as="geometry" />
        </mxCell>
        <mxCell id="22zfAgJAvpb3tttAiQae-2" value="Diseñador" style="shape=umlActor;verticalLabelPosition=bottom;verticalAlign=top;html=1;outlineConnect=0;" vertex="1" parent="1">
          <mxGeometry x="130" y="480" width="30" height="60" as="geometry" />
        </mxCell>
        <mxCell id="22zfAgJAvpb3tttAiQae-12" style="edgeStyle=none;rounded=0;orthogonalLoop=1;jettySize=auto;html=1;entryX=0;entryY=0.5;entryDx=0;entryDy=0;" edge="1" parent="1" source="22zfAgJAvpb3tttAiQae-3" target="22zfAgJAvpb3tttAiQae-11">
          <mxGeometry relative="1" as="geometry" />
        </mxCell>
        <mxCell id="22zfAgJAvpb3tttAiQae-16" style="edgeStyle=none;rounded=0;orthogonalLoop=1;jettySize=auto;html=1;" edge="1" parent="1" source="22zfAgJAvpb3tttAiQae-3" target="22zfAgJAvpb3tttAiQae-14">
          <mxGeometry relative="1" as="geometry" />
        </mxCell>
        <mxCell id="22zfAgJAvpb3tttAiQae-3" value="Asesor" style="shape=umlActor;verticalLabelPosition=bottom;verticalAlign=top;html=1;outlineConnect=0;" vertex="1" parent="1">
          <mxGeometry x="130" y="180" width="30" height="60" as="geometry" />
        </mxCell>
        <mxCell id="22zfAgJAvpb3tttAiQae-5" value="Entregar datos" style="ellipse;whiteSpace=wrap;html=1;" vertex="1" parent="1">
          <mxGeometry x="510" y="240" width="100" height="60" as="geometry" />
        </mxCell>
        <mxCell id="22zfAgJAvpb3tttAiQae-7" style="rounded=0;orthogonalLoop=1;jettySize=auto;html=1;entryX=0;entryY=1;entryDx=0;entryDy=0;" edge="1" parent="1" source="22zfAgJAvpb3tttAiQae-1" target="22zfAgJAvpb3tttAiQae-5">
          <mxGeometry relative="1" as="geometry" />
        </mxCell>
        <mxCell id="22zfAgJAvpb3tttAiQae-9" value="Solicitar datos" style="ellipse;whiteSpace=wrap;html=1;" vertex="1" parent="1">
          <mxGeometry x="260" y="380" width="100" height="60" as="geometry" />
        </mxCell>
        <mxCell id="22zfAgJAvpb3tttAiQae-11" value="Calcular cotización" style="ellipse;whiteSpace=wrap;html=1;" vertex="1" parent="1">
          <mxGeometry x="270" y="120" width="100" height="60" as="geometry" />
        </mxCell>
        <mxCell id="22zfAgJAvpb3tttAiQae-14" value="Solicitar diseño" style="ellipse;whiteSpace=wrap;html=1;" vertex="1" parent="1">
          <mxGeometry x="270" y="240" width="100" height="60" as="geometry" />
        </mxCell>
      </root>
    </mxGraphModel>
  </diagram>
</mxfile>
